<svg width="294" height="969" viewBox="0 0 294 969" fill="none" xmlns="http://www.w3.org/2000/svg">
<path d="M153.708 769.813L154.724 686.784C197.763 691.666 231.167 706.12 254.934 730.147C278.7 754.044 290.849 785.522 291.382 824.581C291.924 864.29 279.098 897.737 252.904 924.92C226.578 951.974 193.69 965.771 154.241 966.309C114.531 966.851 80.95 953.701 53.4979 926.859C26.044 899.888 12.0443 866.417 11.4988 826.447C10.9623 787.127 23.7946 754.137 49.9957 727.475C68.1046 708.997 93.5123 695.758 126.219 687.759L133.042 772.635C104.007 782.537 89.6714 800.768 90.0338 827.328C90.2648 844.254 96.3146 858.17 108.183 869.077C120.05 879.853 135.032 885.118 153.13 884.871C170.576 884.633 184.954 879.033 196.264 868.07C207.443 857.109 212.92 843.361 212.695 826.826C212.465 810.031 207.271 796.754 197.111 786.996C186.949 777.108 172.481 771.38 153.708 769.813Z" fill="#B258FF"/>
<path d="M87.5401 658.901L282.444 656.242L283.526 735.531L16.9491 739.169L15.5606 637.42C15.1377 606.434 22.4915 582.308 37.6219 565.042C54.5484 545.799 76.2266 535.997 102.656 535.637C129.607 535.269 152.487 546.742 171.297 570.055L280.624 522.856L281.759 606.051L196.354 645.697L127.806 646.632L127.721 640.383C127.493 623.717 120.219 615.483 105.897 615.678C93.2683 615.85 87.0853 625.571 87.3482 644.84L87.5401 658.901Z" fill="#D77CFF"/>
<path d="M116.644 444.14L176.013 443.33L176.719 495.083C176.815 502.114 177.925 507.112 180.049 510.078C182.172 512.914 185.706 514.298 190.654 514.231C196.252 514.154 199.942 512.607 201.724 509.587C203.376 506.57 204.139 500.439 204.013 491.195L203.285 437.88L279.45 436.84L280.3 499.139C280.7 528.433 274.04 550.922 260.32 566.605C246.47 582.291 226.331 590.314 199.901 590.674L95.4184 592.1C69.8999 592.448 50.0106 585.427 35.7504 571.037C21.4885 556.517 14.1763 535.977 13.8138 509.417L12.8731 440.478L89.4285 439.433L90.1187 490.014C90.3053 503.685 94.8252 510.46 103.679 510.339C108.886 510.268 112.51 508.591 114.548 505.308C116.457 502.026 117.354 496.219 117.241 487.886L116.644 444.14Z" fill="#AC55FF"/>
<path d="M144.767 372.289L215.073 371.33L215.385 394.179L278.856 393.313L279.938 472.602L110.422 474.916C77.6129 475.363 52.0379 466.792 33.6972 449.202C15.2245 431.484 5.76702 406.415 5.32463 373.997C4.89823 342.749 12.8503 319.527 29.1809 304.329C45.3813 289.132 70.6674 281.299 105.039 280.83L277.289 278.48L278.371 357.769L111.394 360.048C100.978 360.19 93.7695 361.526 89.7671 364.054C85.7648 366.583 83.8072 371.037 83.8942 377.417C84.063 389.786 93.3913 395.844 111.879 395.592L145.079 395.138L144.767 372.289Z" fill="#C46EFF"/>
<path d="M86.2296 205.018L276.251 202.424L277.333 281.714L87.3116 284.307L88.1404 345.044L11.585 346.088L8.84806 145.521L85.4034 144.476L86.2296 205.018Z" fill="#CF7FFF"/>
<path d="M111.41 60.6293L170.78 59.8191L171.486 111.572C171.582 118.603 172.692 123.601 174.816 126.567C176.938 129.403 180.473 130.787 185.42 130.72C191.019 130.643 194.709 129.095 196.491 126.076C198.143 123.058 198.905 116.928 198.779 107.684L198.052 54.3683L274.216 53.329L275.067 115.628C275.466 144.922 268.806 167.411 255.087 183.094C241.237 198.78 221.097 206.802 194.667 207.163L90.1849 208.589C64.6665 208.937 44.7772 201.916 30.517 187.526C16.255 173.006 8.94283 152.466 8.58039 125.906L7.63964 56.9667L84.195 55.922L84.8852 106.503C85.0718 120.174 89.5917 126.949 98.4451 126.828C103.653 126.757 107.276 125.08 109.315 121.796C111.223 118.515 112.121 112.708 112.007 104.375L111.41 60.6293Z" fill="#EDA4FF"/>
<path d="M186.638 48.1876C186.464 35.4283 190.937 24.4288 200.056 15.1889C209.174 5.81883 220.113 1.04673 232.872 0.872618C245.631 0.698504 256.565 5.10702 265.672 14.0982C274.65 23.0911 279.227 34.0323 279.403 46.9217C279.586 60.3319 275.44 71.4572 266.966 80.2976C258.361 89.0096 247.353 93.4571 233.942 93.6401C220.923 93.8178 209.86 89.4761 200.754 80.6152C191.517 71.756 186.812 60.9468 186.638 48.1876Z" fill="#D95EFF"/>
</svg>
