<svg width="54" height="54" viewBox="0 0 54 54" fill="none" xmlns="http://www.w3.org/2000/svg">
<path d="M26.6667 0C11.9467 0 0 11.9467 0 26.6667C0 41.3867 11.9467 53.3333 26.6667 53.3333H40V48H26.6667C15.0933 48 5.33333 38.24 5.33333 26.6667C5.33333 15.0933 15.0933 5.33333 26.6667 5.33333C38.24 5.33333 48 15.0933 48 26.6667V30.48C48 32.5867 46.1067 34.6667 44 34.6667C41.8933 34.6667 40 32.5867 40 30.48V26.6667C40 19.3067 34.0267 13.3333 26.6667 13.3333C19.3067 13.3333 13.3333 19.3067 13.3333 26.6667C13.3333 34.0267 19.3067 40 26.6667 40C30.3467 40 33.7067 38.5067 36.1067 36.08C37.84 38.4533 40.8267 40 44 40C49.2533 40 53.3333 35.7333 53.3333 30.48V26.6667C53.3333 11.9467 41.3867 0 26.6667 0ZM26.6667 34.6667C22.24 34.6667 18.6667 31.0933 18.6667 26.6667C18.6667 22.24 22.24 18.6667 26.6667 18.6667C31.0933 18.6667 34.6667 22.24 34.6667 26.6667C34.6667 31.0933 31.0933 34.6667 26.6667 34.6667Z" fill="white"/>
</svg>
