<svg width="23" height="10" viewBox="0 0 23 10" fill="none" xmlns="http://www.w3.org/2000/svg">
<path d="M3 7.932C3 8.268 2.896 8.54 2.688 8.748C2.48 8.948 2.208 9.048 1.872 9.048H1.368C1.032 9.048 0.76 8.948 0.552 8.748C0.344 8.54 0.24 8.268 0.24 7.932V5.424H1.38V7.872C1.38 7.912 1.4 7.932 1.44 7.932H1.8C1.84 7.932 1.86 7.912 1.86 7.872V1.716H1.38L1.476 0.599999H3V7.932ZM5.45438 4.128C5.45438 4.088 5.43438 4.068 5.39438 4.068H4.67438C4.63438 4.068 4.61438 4.088 4.61438 4.128V7.872C4.61438 7.912 4.63438 7.932 4.67438 7.932H5.39438C5.43438 7.932 5.45438 7.916 5.45438 7.884V4.128ZM3.47438 7.932V4.068C3.47438 3.732 3.57838 3.464 3.78638 3.264C3.99438 3.056 4.26638 2.952 4.60238 2.952H5.46638C5.80238 2.952 6.07438 3.056 6.28238 3.264C6.49038 3.464 6.59438 3.732 6.59438 4.068V7.932C6.59438 8.268 6.49038 8.54 6.28238 8.748C6.07438 8.948 5.80238 9.048 5.46638 9.048H4.60238C4.26638 9.048 3.99438 8.948 3.78638 8.748C3.57838 8.54 3.47438 8.268 3.47438 7.932ZM7.18144 9V1.716H6.89344L7.01344 0.599999H8.32144V3.468L8.62144 3H8.94544C9.31344 3 9.60544 3.104 9.82144 3.312C10.0454 3.52 10.1574 3.788 10.1574 4.116V7.884C10.1574 8.204 10.0454 8.472 9.82144 8.688C9.60544 8.896 9.31344 9 8.94544 9H8.89744C8.68144 9 8.48944 8.948 8.32144 8.844V9H7.18144ZM8.95744 4.116H8.32144V7.884H8.95744C8.99744 7.884 9.01744 7.864 9.01744 7.824V4.176C9.01744 4.136 8.99744 4.116 8.95744 4.116ZM10.6345 7.116L11.7745 7.236V7.824C11.7745 7.864 11.7945 7.884 11.8345 7.884H12.3145C12.3545 7.884 12.3745 7.864 12.3745 7.824V6.708L11.3065 6.252C11.1785 6.196 11.0345 6.108 10.8745 5.988C10.7145 5.868 10.6345 5.672 10.6345 5.4V4.068C10.6345 3.732 10.7385 3.464 10.9465 3.264C11.1545 3.056 11.4265 2.952 11.7625 2.952H12.3865C12.7225 2.952 12.9945 3.056 13.2025 3.264C13.4105 3.464 13.5145 3.732 13.5145 4.068V4.836L12.3745 4.716V4.128C12.3745 4.088 12.3545 4.068 12.3145 4.068H11.8345C11.7945 4.068 11.7745 4.088 11.7745 4.128V5.244L12.8425 5.7C12.9705 5.756 13.1145 5.844 13.2745 5.964C13.4345 6.084 13.5145 6.28 13.5145 6.552V7.884C13.5145 8.22 13.4105 8.492 13.2025 8.7C12.9945 8.9 12.7225 9 12.3865 9H11.7625C11.4265 9 11.1545 8.9 10.9465 8.7C10.7385 8.492 10.6345 8.22 10.6345 7.884V7.116Z" fill="#B68BEE"/>
<path d="M16.2058 7.884V9H15.5098C15.1738 9 14.9018 8.9 14.6938 8.7C14.4858 8.492 14.3818 8.22 14.3818 7.884V4.116H13.8778L13.9738 3H14.3818V1.716H14.0818L14.1778 0.599999H15.5218V3H16.2058L16.1098 4.116H15.5218V7.884H16.2058ZM16.5056 7.932V4.068C16.5056 3.732 16.6096 3.464 16.8176 3.264C17.0256 3.056 17.2976 2.952 17.6336 2.952H18.3776C18.7136 2.952 18.9856 3.056 19.1936 3.264C19.4016 3.464 19.5056 3.732 19.5056 4.068V5.544H18.3656V4.128C18.3656 4.088 18.3456 4.068 18.3056 4.068H17.7056C17.6656 4.068 17.6456 4.088 17.6456 4.128V5.544H19.5056V6.66H17.6456V7.872C17.6456 7.912 17.6656 7.932 17.7056 7.932H18.3056C18.3456 7.932 18.3656 7.916 18.3656 7.884V7.224H19.5056V7.932C19.5056 8.268 19.4016 8.54 19.1936 8.748C18.9856 8.948 18.7136 9.048 18.3776 9.048H17.6336C17.2976 9.048 17.0256 8.948 16.8176 8.748C16.6096 8.54 16.5056 8.268 16.5056 7.932ZM21.3527 3V3.528L21.6767 3H22.4807V4.164H21.3527V9H20.2127V4.116H19.9247L20.0447 3H21.3527Z" fill="white"/>
</svg>
