<svg width="43" height="56" viewBox="0 0 43 56" fill="none" xmlns="http://www.w3.org/2000/svg">
<path d="M37.3333 18.6667H34.6667V13.3333C34.6667 5.97333 28.6933 0 21.3333 0C13.9733 0 8 5.97333 8 13.3333V18.6667H5.33333C2.4 18.6667 0 21.0667 0 24V50.6667C0 53.6 2.4 56 5.33333 56H37.3333C40.2667 56 42.6667 53.6 42.6667 50.6667V24C42.6667 21.0667 40.2667 18.6667 37.3333 18.6667ZM21.3333 42.6667C18.4 42.6667 16 40.2667 16 37.3333C16 34.4 18.4 32 21.3333 32C24.2667 32 26.6667 34.4 26.6667 37.3333C26.6667 40.2667 24.2667 42.6667 21.3333 42.6667ZM29.6 18.6667H13.0667V13.3333C13.0667 8.77333 16.7733 5.06667 21.3333 5.06667C25.8933 5.06667 29.6 8.77333 29.6 13.3333V18.6667Z" fill="white"/>
</svg>
